<svg height="1182" width="720" xmlns="http://www.w3.org/2000/svg">
<rect height="1182" fill="#555" width="720"></rect>
<text fill="#7f7" font-family="Courier New" font-size="12" xml:space="preserve">
<tspan x="10" y="26">└─┬ gulp-ftp@1.1.0 </tspan>
<tspan x="10" y="42">  ├─┬ chalk@1.1.3 </tspan>
<tspan x="10" y="58">  │ ├── ansi-styles@2.2.1 </tspan>
<tspan x="10" y="74">  │ ├── escape-string-regexp@1.0.5 </tspan>
<tspan x="10" y="90">  │ ├─┬ has-ansi@2.0.0 </tspan>
<tspan x="10" y="106">  │ │ └── ansi-regex@2.1.1 </tspan>
<tspan x="10" y="122">  │ ├── strip-ansi@3.0.1 </tspan>
<tspan x="10" y="138">  │ └── supports-color@2.0.0 </tspan>
<tspan x="10" y="154">  ├─┬ gulp-util@3.0.8 </tspan>
<tspan x="10" y="170">  │ ├── array-differ@1.0.0 </tspan>
<tspan x="10" y="186">  │ ├── array-uniq@1.0.3 </tspan>
<tspan x="10" y="202">  │ ├── beeper@1.1.1 </tspan>
<tspan x="10" y="218">  │ ├── dateformat@2.0.0 </tspan>
<tspan x="10" y="234">  │ ├─┬ fancy-log@1.3.0 </tspan>
<tspan x="10" y="250">  │ │ └── time-stamp@1.0.1 </tspan>
<tspan x="10" y="266">  │ ├─┬ gulplog@1.0.0 </tspan>
<tspan x="10" y="282">  │ │ └── glogg@1.0.0 </tspan>
<tspan x="10" y="298">  │ ├─┬ has-gulplog@0.1.0 </tspan>
<tspan x="10" y="314">  │ │ └── sparkles@1.0.0 </tspan>
<tspan x="10" y="330">  │ ├── lodash._reescape@3.0.0 </tspan>
<tspan x="10" y="346">  │ ├── lodash._reevaluate@3.0.0 </tspan>
<tspan x="10" y="362">  │ ├── lodash._reinterpolate@3.0.0 </tspan>
<tspan x="10" y="378">  │ ├─┬ lodash.template@3.6.2 </tspan>
<tspan x="10" y="394">  │ │ ├── lodash._basecopy@3.0.1 </tspan>
<tspan x="10" y="410">  │ │ ├── lodash._basetostring@3.0.1 </tspan>
<tspan x="10" y="426">  │ │ ├── lodash._basevalues@3.0.0 </tspan>
<tspan x="10" y="442">  │ │ ├── lodash._isiterateecall@3.0.9 </tspan>
<tspan x="10" y="458">  │ │ ├─┬ lodash.escape@3.2.0 </tspan>
<tspan x="10" y="474">  │ │ │ └── lodash._root@3.0.1 </tspan>
<tspan x="10" y="490">  │ │ ├─┬ lodash.keys@3.1.2 </tspan>
<tspan x="10" y="506">  │ │ │ ├── lodash._getnative@3.9.1 </tspan>
<tspan x="10" y="522">  │ │ │ ├── lodash.isarguments@3.1.0 </tspan>
<tspan x="10" y="538">  │ │ │ └── lodash.isarray@3.0.4 </tspan>
<tspan x="10" y="554">  │ │ ├── lodash.restparam@3.6.1 </tspan>
<tspan x="10" y="570">  │ │ └── lodash.templatesettings@3.1.1 </tspan>
<tspan x="10" y="586">  │ ├── minimist@1.2.0 </tspan>
<tspan x="10" y="602">  │ ├─┬ multipipe@0.1.2 </tspan>
<tspan x="10" y="618">  │ │ └── duplexer2@0.0.2 </tspan>
<tspan x="10" y="634">  │ ├── object-assign@3.0.0 </tspan>
<tspan x="10" y="650">  │ ├── replace-ext@0.0.1 </tspan>
<tspan x="10" y="666">  │ └─┬ vinyl@0.5.3 </tspan>
<tspan x="10" y="682">  │   ├── clone@1.0.2 </tspan>
<tspan x="10" y="698">  │   └── clone-stats@0.0.1 </tspan>
<tspan x="10" y="714">  ├─┬ jsftp@1.5.5 </tspan>
<tspan x="10" y="730">  │ ├─┬ debug@2.6.3 </tspan>
<tspan x="10" y="746">  │ │ └── ms@0.7.2 </tspan>
<tspan x="10" y="762">  │ ├─┬ ftp-response-parser@1.0.1 </tspan>
<tspan x="10" y="778">  │ │ └─┬ readable-stream@1.1.14 </tspan>
<tspan x="10" y="794">  │ │   └── isarray@0.0.1 </tspan>
<tspan x="10" y="810">  │ ├─┬ once@1.4.0 </tspan>
<tspan x="10" y="826">  │ │ └── wrappy@1.0.2 </tspan>
<tspan x="10" y="842">  │ ├── parse-listing@1.1.3 </tspan>
<tspan x="10" y="858">  │ ├─┬ stream-combiner@0.2.2 </tspan>
<tspan x="10" y="874">  │ │ ├── duplexer@0.1.1 </tspan>
<tspan x="10" y="890">  │ │ └── through@2.3.8 </tspan>
<tspan x="10" y="906">  │ └── unorm@1.4.1 </tspan>
<tspan x="10" y="922">  ├── jsftp-mkdirp@1.0.0 </tspan>
<tspan x="10" y="938">  ├── object-assign@4.1.1 </tspan>
<tspan x="10" y="954">  ├─┬ parents@1.0.1 </tspan>
<tspan x="10" y="970">  │ └── path-platform@0.11.15 </tspan>
<tspan x="10" y="986">  ├─┬ plur@2.1.2 </tspan>
<tspan x="10" y="1002">  │ └── irregular-plurals@1.2.0 </tspan>
<tspan x="10" y="1018">  └─┬ through2@2.0.3 </tspan>
<tspan x="10" y="1034">    ├─┬ readable-stream@2.2.6 </tspan>
<tspan x="10" y="1050">    │ ├── buffer-shims@1.0.0 </tspan>
<tspan x="10" y="1066">    │ ├── core-util-is@1.0.2 </tspan>
<tspan x="10" y="1082">    │ ├── inherits@2.0.3 </tspan>
<tspan x="10" y="1098">    │ ├── isarray@1.0.0 </tspan>
<tspan x="10" y="1114">    │ ├── process-nextick-args@1.0.7 </tspan>
<tspan x="10" y="1130">    │ ├── string_decoder@0.10.31 </tspan>
<tspan x="10" y="1146">    │ └── util-deprecate@1.0.2 </tspan>
<tspan x="10" y="1162">    └── xtend@4.0.1</tspan>
</text>
</svg>
